<svg width="18" height="20" viewBox="0 0 18 20" fill="none" xmlns="http://www.w3.org/2000/svg">
<g id="Vector">
<path id="Vector_2" d="M18 12.0659C18 12.6797 17.6826 13.2522 17.1298 13.6362C16.7171 13.9236 16.2172 14.0753 15.6855 14.0753C14.9766 14.0753 14.3154 13.7971 13.871 13.312L13.4583 12.8568L13.0431 13.312C12.6013 13.7971 11.94 14.073 11.2285 14.073C10.517 14.073 9.85569 13.7948 9.41396 13.3097L9.00132 12.8568L8.58604 13.312C8.14431 13.7971 7.48303 14.0753 6.77149 14.0753C6.05996 14.0753 5.39868 13.7971 4.95694 13.312L4.54431 12.8568L4.12902 13.312C3.68729 13.7971 3.02601 14.0753 2.31448 14.0753C1.78281 14.0753 1.28288 13.9236 0.870243 13.6362C0.317414 13.2522 0 12.6797 0 12.0659C0 10.9577 1.03689 10.0542 2.31448 10.0542C2.55783 10.0542 3.58148 10.0542 4.96223 10.0565L7.04923 10.0588V6.16175C7.04923 5.84907 7.34284 5.59387 7.70257 5.59387H10.3159C10.6757 5.59387 10.9693 5.84907 10.9693 6.16175V10.0588C13.3314 10.0611 15.3284 10.0611 15.6855 10.0611C16.9631 10.0611 18 10.96 18 12.0659Z" fill="#FFAB00"/>
<path id="Vector_3" d="M17.8675 14.3006V19.2666C17.8675 19.6713 17.4893 20.0001 17.0237 20.0001H0.996974C0.531434 20.0001 0.153183 19.6713 0.153183 19.2666V14.3098C0.171699 14.3236 0.190214 14.3373 0.211375 14.3511C0.319825 14.427 0.433565 14.496 0.54995 14.5581C1.07897 14.8409 1.68999 14.9926 2.31424 14.9926C3.14745 14.9926 3.93305 14.7305 4.54407 14.2615C5.15509 14.7305 5.94069 14.9926 6.7739 14.9926C7.60711 14.9926 8.39271 14.7305 9.00373 14.2615C9.61475 14.7305 10.4004 14.9926 11.2336 14.9926C12.0668 14.9926 12.8524 14.7305 13.4634 14.2615C14.0744 14.7305 14.86 14.9926 15.6932 14.9926C16.3254 14.9926 16.9444 14.8363 17.476 14.5489C17.5871 14.4891 17.6956 14.4224 17.7961 14.3511C17.8173 14.3373 17.8411 14.319 17.8675 14.3006Z" fill="#FFAB00"/>
<path id="Vector_4" d="M6.77888 3.06472V3.06012C6.80533 1.5703 8.67013 0.236809 8.75213 0.179331L9.00871 0L9.25999 0.183929C9.28115 0.200023 9.78373 0.572479 10.2757 1.09898C10.9634 1.83929 11.2835 2.50374 11.2253 3.08081C11.2147 4.13841 10.2228 4.99598 9.00342 4.99598C7.77608 4.99598 6.77888 4.12921 6.77888 3.06472Z" fill="#FFAB00"/>
</g>
</svg>
