<svg width="20" height="14" viewBox="0 0 20 14" fill="none" xmlns="http://www.w3.org/2000/svg">
<g id="Vector">
<path id="Combined Shape" fill-rule="evenodd" clip-rule="evenodd" d="M10.9998 13.4807C10.9998 13.8457 11.3803 14.0964 11.7219 13.968C12.9647 13.5007 15.7447 12.6044 19.5379 12.2614C19.7981 12.2378 19.9999 12.0276 19.9999 11.7662C19.9999 9.85102 19.9999 2.48112 19.9999 0.491175C19.9999 0.215033 19.7784 -0.00425403 19.5026 0.00951895C18.2476 0.0721931 14.8012 0.380848 11.2951 1.9009C11.115 1.97899 10.9998 2.1574 10.9998 2.35371C10.9998 3.95727 10.9998 11.0941 10.9998 13.4807Z" fill="#38CB89"/>
<path id="Path 41 Copy" opacity="0.6" fill-rule="evenodd" clip-rule="evenodd" d="M9.00029 13.4807C9.00029 13.8457 8.61983 14.0964 8.27823 13.968C7.03546 13.5007 4.25544 12.6044 0.462257 12.2614C0.202003 12.2378 0.000250816 12.0276 0.000250816 11.7662C0.000250816 9.85102 0.000250816 2.48112 0.000250816 0.491175C0.000250816 0.215033 0.221738 -0.00425404 0.497537 0.00951895C1.75256 0.0721931 5.19888 0.380848 8.70502 1.9009C8.88513 1.97899 9.00029 2.1574 9.00029 2.35371C9.00029 3.95727 9.00029 11.0941 9.00029 13.4807Z" fill="#38CB89"/>
</g>
</svg>
