<svg width="20" height="16" viewBox="0 0 20 16" fill="none" xmlns="http://www.w3.org/2000/svg">
<g id="Vector">
<path id="Combined Shape" fill-rule="evenodd" clip-rule="evenodd" d="M2 3.19952C0.895431 3.19952 0 4.09495 0 5.19952V13.9997C0 15.1042 0.895431 15.9997 2 15.9997H18C19.1046 15.9997 20 15.1043 20 13.9997V5.19952C20 4.09495 19.1046 3.19952 18 3.19952H2ZM5.55542 9.59987C5.55542 11.9563 7.54527 13.8666 9.99986 13.8666C12.4545 13.8666 14.4443 11.9563 14.4443 9.59987C14.4443 7.24343 12.4545 5.33315 9.99986 5.33315C7.54527 5.33315 5.55542 7.24343 5.55542 9.59987Z" fill="#FF5630"/>
<rect id="Rectangle" x="6.66626" width="6.66667" height="2.13336" rx="1.06668" fill="#FF5630"/>
<path id="Oval 2" opacity="0.3" fill-rule="evenodd" clip-rule="evenodd" d="M10.0005 11.7337C11.2278 11.7337 12.2228 10.7785 12.2228 9.60031C12.2228 8.42209 11.2278 7.46695 10.0005 7.46695C8.77324 7.46695 7.77832 8.42209 7.77832 9.60031C7.77832 10.7785 8.77324 11.7337 10.0005 11.7337Z" fill="#FF5630"/>
</g>
</svg>
