<svg width="16" height="14" viewBox="0 0 16 14" fill="none" xmlns="http://www.w3.org/2000/svg">
<g id="Vector">
<g id="Vector (Stroke)">
<path fill-rule="evenodd" clip-rule="evenodd" d="M1.01772 9.24462C1.66935 8.57659 2.55316 8.20129 3.47471 8.20129H8.64638C9.56793 8.20129 10.4517 8.57659 11.1034 9.24462C11.755 9.91265 12.1211 10.8187 12.1211 11.7634V13.0889C12.1211 13.5921 11.8 14.0001 11.3091 14.0001C10.8181 14.0001 10.497 13.5921 10.497 13.0889V11.5001C10.497 11.0387 10.3182 10.5963 10 10.27C9.68176 9.94376 9.25013 9.76048 8.80007 9.76048H3.19993C2.74987 9.76048 2.31824 9.94376 2 10.27C1.68176 10.5963 1.50297 11.0387 1.50297 11.5001V13.0889C1.50297 13.5921 1.2424 14.0001 0.751487 14.0001C0.260572 14.0001 0 13.5921 0 13.0889V11.7634C0 10.8187 0.366085 9.91265 1.01772 9.24462Z" fill="white"/>
<path fill-rule="evenodd" clip-rule="evenodd" d="M1.01772 9.24462C1.66935 8.57659 2.55316 8.20129 3.47471 8.20129H8.64638C9.56793 8.20129 10.4517 8.57659 11.1034 9.24462C11.755 9.91265 12.1211 10.8187 12.1211 11.7634V13.0889C12.1211 13.5921 11.8 14.0001 11.3091 14.0001C10.8181 14.0001 10.497 13.5921 10.497 13.0889V11.5001C10.497 11.0387 10.3182 10.5963 10 10.27C9.68176 9.94376 9.25013 9.76048 8.80007 9.76048H3.19993C2.74987 9.76048 2.31824 9.94376 2 10.27C1.68176 10.5963 1.50297 11.0387 1.50297 11.5001V13.0889C1.50297 13.5921 1.2424 14.0001 0.751487 14.0001C0.260572 14.0001 0 13.5921 0 13.0889V11.7634C0 10.8187 0.366085 9.91265 1.01772 9.24462Z" fill="#4E5D78"/>
</g>
<g id="Vector (Stroke)_2">
<path fill-rule="evenodd" clip-rule="evenodd" d="M6.06065 1.5C5 1.5 4 2 4 3.56213C4 5 5 5.5 6.06065 5.5C6.99785 5.5 8 5 8 3.56213C8 2 6.99785 1.5 6.06065 1.5ZM2.58594 3.56213C2.58594 1.59482 4.14162 0 6.06065 0C7.97968 0 9.53536 1.59482 9.53536 3.56213C9.53536 5.52944 7.97968 7.12426 6.06065 7.12426C4.14162 7.12426 2.58594 5.52944 2.58594 3.56213Z" fill="white"/>
<path fill-rule="evenodd" clip-rule="evenodd" d="M6.06065 1.5C5 1.5 4 2 4 3.56213C4 5 5 5.5 6.06065 5.5C6.99785 5.5 8 5 8 3.56213C8 2 6.99785 1.5 6.06065 1.5ZM2.58594 3.56213C2.58594 1.59482 4.14162 0 6.06065 0C7.97968 0 9.53536 1.59482 9.53536 3.56213C9.53536 5.52944 7.97968 7.12426 6.06065 7.12426C4.14162 7.12426 2.58594 5.52944 2.58594 3.56213Z" fill="#4E5D78"/>
</g>
<g id="Vector (Stroke)_3">
<path fill-rule="evenodd" clip-rule="evenodd" d="M12.3116 9.11274C12.3116 8.50006 12.9192 8.10462 13.3945 8.23043C14.14 8.42775 14.8004 8.87327 15.2721 9.49705C15.7437 10.1208 16 10.8875 16.0006 11.6768V13.0029C16.0006 13.5062 15.741 13.9142 15.2501 13.9142C14.7592 13.9142 14.4996 13.5062 14.4996 13.0029L14.5 11.6779C14.4996 11.2925 14.3745 10.9182 14.1442 10.6136C13.9138 10.309 13.5913 10.0914 13.2273 9.99505C12.7519 9.86923 12.3121 9.50006 12.3116 9.11274Z" fill="white"/>
<path fill-rule="evenodd" clip-rule="evenodd" d="M12.3116 9.11274C12.3116 8.50006 12.9192 8.10462 13.3945 8.23043C14.14 8.42775 14.8004 8.87327 15.2721 9.49705C15.7437 10.1208 16 10.8875 16.0006 11.6768V13.0029C16.0006 13.5062 15.741 13.9142 15.2501 13.9142C14.7592 13.9142 14.4996 13.5062 14.4996 13.0029L14.5 11.6779C14.4996 11.2925 14.3745 10.9182 14.1442 10.6136C13.9138 10.309 13.5913 10.0914 13.2273 9.99505C12.7519 9.86923 12.3121 9.50006 12.3116 9.11274Z" fill="#4E5D78"/>
</g>
<g id="Vector (Stroke)_4">
<path fill-rule="evenodd" clip-rule="evenodd" d="M9.72523 0.771559C9.847 0.28402 10.3312 -0.0100133 10.8068 0.114816C11.5542 0.311002 12.2167 0.756624 12.6898 1.38143C13.1629 2.00624 13.4197 2.77468 13.4197 3.56563C13.4197 4.35658 13.1629 5.12502 12.6898 5.74983C12.2167 6.37463 11.5542 6.82026 10.8068 7.01644C10.3312 7.14127 9.847 6.84724 9.72523 6.3597C9.60347 5.87216 10.1045 5.37574 10.5801 5.25091C10.9451 5.1551 11.2687 4.93747 11.4997 4.63233C11.7307 4.32719 11.8561 3.9519 11.8561 3.56563C11.8561 3.17936 11.7307 2.80407 11.4997 2.49893C11.2687 2.19379 10.9451 1.97616 10.5801 1.88035C10.1045 1.75552 9.60347 1.2591 9.72523 0.771559Z" fill="white"/>
<path fill-rule="evenodd" clip-rule="evenodd" d="M9.72523 0.771559C9.847 0.28402 10.3312 -0.0100133 10.8068 0.114816C11.5542 0.311002 12.2167 0.756624 12.6898 1.38143C13.1629 2.00624 13.4197 2.77468 13.4197 3.56563C13.4197 4.35658 13.1629 5.12502 12.6898 5.74983C12.2167 6.37463 11.5542 6.82026 10.8068 7.01644C10.3312 7.14127 9.847 6.84724 9.72523 6.3597C9.60347 5.87216 10.1045 5.37574 10.5801 5.25091C10.9451 5.1551 11.2687 4.93747 11.4997 4.63233C11.7307 4.32719 11.8561 3.9519 11.8561 3.56563C11.8561 3.17936 11.7307 2.80407 11.4997 2.49893C11.2687 2.19379 10.9451 1.97616 10.5801 1.88035C10.1045 1.75552 9.60347 1.2591 9.72523 0.771559Z" fill="#4E5D78"/>
</g>
</g>
</svg>
